ffmpeg version 3.4.8-0ubuntu0.2 Copyright (c) 2000-2020 the FFmpeg developers
  built with gcc 7 (Ubuntu 7.5.0-3ubuntu1~18.04)
  configuration: --prefix=/usr --extra-version=0ubuntu0.2 --toolchain=hardened --libdir=/usr/lib/x86_64-linux-gnu --incdir=/usr/include/x86_64-linux-gnu --enable-gpl --disable-stripping --enable-avresample --enable-avisynth --enable-gnutls --enable-ladspa --enable-libass --enable-libbluray --enable-libbs2b --enable-libcaca --enable-libcdio --enable-libflite --enable-libfontconfig --enable-libfreetype --enable-libfribidi --enable-libgme --enable-libgsm --enable-libmp3lame --enable-libmysofa --enable-libopenjpeg --enable-libopenmpt --enable-libopus --enable-libpulse --enable-librubberband --enable-librsvg --enable-libshine --enable-libsnappy --enable-libsoxr --enable-libspeex --enable-libssh --enable-libtheora --enable-libtwolame --enable-libvorbis --enable-libvpx --enable-libwavpack --enable-libwebp --enable-libx265 --enable-libxml2 --enable-libxvid --enable-libzmq --enable-libzvbi --enable-omx --enable-openal --enable-opengl --enable-sdl2 --enable-libdc1394 --enable-libdrm --enable-libiec61883 --enable-chromaprint --enable-frei0r --enable-libopencv --enable-libx264 --enable-shared
  libavutil      55. 78.100 / 55. 78.100
  libavcodec     57.107.100 / 57.107.100
  libavformat    57. 83.100 / 57. 83.100
  libavdevice    57. 10.100 / 57. 10.100
  libavfilter     6.107.100 /  6.107.100
  libavresample   3.  7.  0 /  3.  7.  0
  libswscale      4.  8.100 /  4.  8.100
  libswresample   2.  9.100 /  2.  9.100
  libpostproc    54.  7.100 / 54.  7.100
[rawvideo @ 0x56016e7d8a20] Estimating duration from bitrate, this may be inaccurate
Input #0, rawvideo, from '../../SVC-Encoder-20220109T061506Z-001/SVC-Encoder/Dataset/RollerCoaster/6f_2x2/tile_yuv/f3_t1_480x480.yuv':
  Duration: 00:00:10.00, start: 0.000000, bitrate: 82944 kb/s
    Stream #0:0: Video: rawvideo (I420 / 0x30323449), yuv420p, 480x480, 82944 kb/s, 30 tbr, 30 tbn, 30 tbc
Stream mapping:
  Stream #0:0 -> #0:0 (rawvideo (native) -> h264 (libx264))
Press [q] to stop, [?] for help
[libx264 @ 0x56016e7e5c60] using cpu capabilities: MMX2 SSE2Fast LZCNT SSSE3 SSE4.2 AVX
[libx264 @ 0x56016e7e5c60] profile High, level 3.0
Output #0, rawvideo, to 'RollerCoaster_f3_t1_480x480_x264_QP_32.h264':
  Metadata:
    encoder         : Lavf57.83.100
    Stream #0:0: Video: h264 (libx264), yuv420p, 480x480, q=-1--1, 30 fps, 30 tbn, 30 tbc
    Metadata:
      encoder         : Lavc57.107.100 libx264
    Side data:
      cpb: bitrate max/min/avg: 0/0/0 buffer size: 0 vbv_delay: -1
frame=  157 fps=0.0 q=38.0 PSNR=Y:nan U:nan V:nan *:nan size=      55kB time=00:00:03.80 bitrate= 119.1kbits/s speed=7.58x    frame=  293 fps=285 q=38.0 PSNR=Y:nan U:nan V:nan *:nan size=     118kB time=00:00:08.33 bitrate= 115.9kbits/s speed=8.11x    frame=  300 fps=256 q=38.0 LPSNR=Y:inf U:inf V:inf *:inf size=     136kB time=00:00:09.93 bitrate= 111.8kbits/s speed=8.47x    
video:136kB audio:0kB subtitle:0kB other streams:0kB global headers:0kB muxing overhead: 0.000000%
[libx264 @ 0x56016e7e5c60] frame I:2     Avg QP:30.37  size:  8542  PSNR Mean Y:41.01 U:44.11 V:42.92 Avg:41.68 Global:41.61
[libx264 @ 0x56016e7e5c60] frame P:76    Avg QP:31.80  size:   924  PSNR Mean Y:39.62 U:44.07 V:42.83 Avg:40.55 Global:40.54
[libx264 @ 0x56016e7e5c60] frame B:222   Avg QP:37.54  size:   232  PSNR Mean Y:39.18 U:43.94 V:42.74 Avg:40.17 Global:40.16
[libx264 @ 0x56016e7e5c60] consecutive B-frames:  1.0%  0.7%  1.0% 97.3%
[libx264 @ 0x56016e7e5c60] mb I  I16..4: 47.3% 34.6% 18.1%
[libx264 @ 0x56016e7e5c60] mb P  I16..4:  0.7%  0.8%  0.1%  P16..4: 29.5%  4.2%  0.8%  0.0%  0.0%    skip:63.8%
[libx264 @ 0x56016e7e5c60] mb B  I16..4:  0.1%  0.1%  0.0%  B16..8: 18.1%  0.4%  0.0%  direct: 0.0%  skip:81.2%  L0:41.7% L1:57.6% BI: 0.6%
[libx264 @ 0x56016e7e5c60] 8x8 transform intra:42.0% inter:84.3%
[libx264 @ 0x56016e7e5c60] coded y,uvDC,uvAC intra: 31.8% 49.2% 18.8% inter: 1.6% 1.4% 0.0%
[libx264 @ 0x56016e7e5c60] i16 v,h,dc,p: 59% 23% 11%  8%
[libx264 @ 0x56016e7e5c60] i8 v,h,dc,ddl,ddr,vr,hd,vl,hu: 22% 12% 36%  6%  3%  5%  7%  3%  6%
[libx264 @ 0x56016e7e5c60] i4 v,h,dc,ddl,ddr,vr,hd,vl,hu: 19% 31% 20%  4%  6%  3% 10%  2%  3%
[libx264 @ 0x56016e7e5c60] i8c dc,h,v,p: 55% 19% 17%  8%
[libx264 @ 0x56016e7e5c60] Weighted P-Frames: Y:0.0% UV:0.0%
[libx264 @ 0x56016e7e5c60] ref P L0: 54.8% 15.3% 21.8%  8.1%
[libx264 @ 0x56016e7e5c60] ref B L0: 65.3% 27.3%  7.4%
[libx264 @ 0x56016e7e5c60] ref B L1: 76.9% 23.1%
[libx264 @ 0x56016e7e5c60] PSNR Mean Y:39.306 U:43.971 V:42.762 Avg:40.278 Global:40.261 kb/s:111.09
